<svg xmlns="http://www.w3.org/2000/svg" width="69.164" height="33.397" viewBox="0 0 69.164 33.397" class="w-full h-full"><g id="Shape_1" data-name="Shape 1" transform="translate(-0.075)" class="bg-blend-normal isolate"><g id="Shape_1-2" data-name="Shape 1" transform="translate(0.075)"><path fill="#fff" id="Path_1" data-name="Path 1" d="M161.266,210.363a9.825,9.825,0,0,0,1.547-.4,45.187,45.187,0,0,0,5.9-3.356c.555-.341,1.1-.7,1.724-1.094-.123.273-.2.47-.3.658-.634,1.234-1.285,2.464-1.9,3.707a3.957,3.957,0,0,0-.453,1.247,1.973,1.973,0,0,0,.8,1.721c.32.276.542.269.777.034.341-.341.7-.719,1.022-1.1.624-.739,1.23-1.5,1.84-2.249s1.274-1.571,1.9-2.361a22.565,22.565,0,0,0,2.2-3.019c.082-.245-.051-.382-.252-.375a1.1,1.1,0,0,0-.654.17c-.6.515-1.165,1.067-1.728,1.622s-1.046,1.09-1.595,1.663a.518.518,0,0,1,.02-.123,14.933,14.933,0,0,0,1.329-3.939,1,1,0,0,0-1.06-1.261,5.861,5.861,0,0,0-1.85.443c-1.145.542-2.239,1.2-3.346,1.816-.682.375-1.336.763-2,1.145l-.037-.055c.831-.733,1.66-1.465,2.494-2.195s1.653-1.441,2.481-2.16c.743-.647,1.489-1.288,2.229-1.939.518-.453,1.022-.906,1.53-1.387a5.706,5.706,0,0,0,1.748-2.045c.065-.191.143-.375.225-.555a2.893,2.893,0,0,0,.269-1.234.494.494,0,0,0-.409-.528c-.1-.031-.194-.089-.293-.126s-.245-.14-.341-.123a12.724,12.724,0,0,0-1.84.358c-1.874.607-3.748,1.254-5.6,1.9-4.14,1.452-8.277,2.91-12.53,4-1.537.4-3.094.709-4.651,1.022-.883.174-1.782.279-2.678.378s-1.884.174-2.828.249c-.61.048-1.223.082-1.833.126-1.022.082-2.072.2-3.111.235s-2.092.034-3.138,0a1.364,1.364,0,0,1-1.172-.382.157.157,0,0,0-.279.119.924.924,0,0,0,.078.382,2.488,2.488,0,0,0,1.118,1.05,12.51,12.51,0,0,0,2.886,1.107,22.027,22.027,0,0,0,4.631.767,22.726,22.726,0,0,0,3.408-.116c1.22-.119,2.43-.341,3.639-.542a62.209,62.209,0,0,0,6.563-1.6c3.029-.872,6.011-1.881,8.969-2.965.382-.14.767-.266,1.148-.4l.037.068c-.3.249-.6.494-.889.746-1,.869-2.01,1.721-2.985,2.617-1.2,1.1-2.385,2.208-3.523,3.36a7.729,7.729,0,0,0-1.022,1.465,1.189,1.189,0,0,0-.106,1.2c.194.388.4.774.566,1.176a2.409,2.409,0,0,0,1.118,1.022A.341.341,0,0,0,161.266,210.363Zm43.219-13.9a5.671,5.671,0,0,0-2.017-2.818,17.955,17.955,0,0,0-3.162-2.065,27.3,27.3,0,0,0-7.718-2.767c-1.731-.341-3.486-.542-5.234-.75a27.351,27.351,0,0,0-3.121-.187c-2.344,0-4.689.031-7.033.055-.409,0-.818.034-1.223.065-1.022.075-2.045.16-3.067.242-.559.044-1.118.072-1.677.129-.859.092-1.7.2-2.569.3-.746.085-1.5.153-2.239.259-1.063.147-2.123.32-3.183.484s-2.147.3-3.21.5c-1.625.3-3.241.644-4.859.975-2.767.569-5.5,1.285-8.2,2.106q-.975.3-1.939.624a.487.487,0,0,0-.3.262c-.061.245.341.682.593.651a10.477,10.477,0,0,0,1.165-.181c1.779-.378,3.551-.777,5.33-1.145,1.363-.276,2.7-.521,4.052-.767.9-.164,1.816-.3,2.726-.45s1.782-.29,2.678-.412c.845-.119,1.7-.215,2.545-.32.992-.123,1.983-.252,2.975-.361.743-.082,1.489-.133,2.232-.194,1.182-.1,2.365-.221,3.551-.293,1.394-.085,2.791-.16,4.188-.181a72.924,72.924,0,0,1,7.766.17c1.445.133,2.89.259,4.328.443a32.764,32.764,0,0,1,3.3.569,60.805,60.805,0,0,1,7.585,2.27,13.8,13.8,0,0,1,4.4,2.351,2.781,2.781,0,0,1,.923,2.443,1.428,1.428,0,0,0,.044.341h.126A3.5,3.5,0,0,0,204.485,196.467Zm-13.849,8.655a2.222,2.222,0,0,0-1.363.32c-.388.259-.736.579-1.118.848-.947.682-1.9,1.315-2.893,2a4.934,4.934,0,0,1-.221-.494,3.132,3.132,0,0,1,.089-1.663c.562-2.385,1.261-4.73,2.045-7.054.371-1.09.682-2.208.981-3.316.065-.218.109-.467-.133-.61a1.131,1.131,0,0,0-.985-.16,2.644,2.644,0,0,0-.436.116.93.93,0,0,0-.416.341c-.419,1.022-.835,2.045-1.2,3.087a24.289,24.289,0,0,1-2.665,5.749c-.259.382-.532.753-.794,1.128a.273.273,0,0,1,0-.228,4.542,4.542,0,0,0,.487-2.147.927.927,0,0,0-.845-.958,2.631,2.631,0,0,0-1.847.487,7.663,7.663,0,0,0-1.728,1.861c-.8,1.217-1.363,2.491-.641,3.977a49.407,49.407,0,0,1-7.745,6.975.484.484,0,0,0,.375.037c.879-.44,1.782-.845,2.62-1.363a37.055,37.055,0,0,0,5.588-4.2c.075-.068.252-.123.314-.082a1.54,1.54,0,0,0,1.4.092,7.116,7.116,0,0,0,2.982-2.215c.279-.3.521-.634.842-1.022a3.68,3.68,0,0,0,.59,2.566c.341.518.872,1.022,1.561.787.256-.082.5-.194.77-.3a2.989,2.989,0,0,0,.194.269c.3.341.61.7.923,1.043a.538.538,0,0,0,.774.034,7.021,7.021,0,0,0,1.043-.852,14.825,14.825,0,0,0,1.09-1.39,4.246,4.246,0,0,0,.808-3.251A.457.457,0,0,0,190.637,205.122Zm-11.889,1.295-.106-.078,1.138-1.54.1.082C179.5,205.392,179.122,205.9,178.747,206.417Zm-.429,9.252c-.954.136-1.9.286-2.856.412-.736.1-1.475.153-2.212.262-1.24.187-2.477.409-3.721.6a32.557,32.557,0,0,0-5.111,1.189,18.139,18.139,0,0,0-3.551,1.493c-.562.324-.825.624-.341,1.305.228.32.341.406.722.3.682-.191,1.363-.4,2.072-.569,1.4-.341,2.818-.644,4.208-1.022q3.305-.934,6.58-1.987c1.424-.46,2.815-1.022,4.215-1.557.177-.065.371-.136.388-.416A2.9,2.9,0,0,0,178.318,215.669Zm-4.873-15.883c-.225.16-.041.358.051.508s.17.273.409.215c.555-.136,1.121-.249,1.7-.341.733-.106,1.479-.129,2.2-.266,1.336-.256,2.665-.552,3.99-.862.617-.143,1.217-.358,1.82-.555.1-.034.174-.143.279-.239-.9,0-1.734-.02-2.562,0-1.08.037-2.16.112-3.241.181a13.937,13.937,0,0,0-3.721.821A3.964,3.964,0,0,0,173.445,199.786Z" transform="translate(-135.425 -187.88)"></path></g></g></svg>